Eva Angelina vs. Teagan DVD
Zero Tolerance

Category 	All Sex, Compilation, Star-Power

Starring 	Eva Angelina, Lindsey Meadows, Teagan Presley, Gianna Lynn, Savanah Gold



Watch as two of the Hottest XXX Stars fuck and suck their way through a 16-hour big tit throwdown! Perennial fan faves Eva Angelina and Teagan get their competitive juices flowing in this head to head, pussy to pussy fuckfest. Eva Angelina vs Teagan is guaranteed to deliver a knockout!

Studio Zero Tolerance 

Discs 1 
Release Date Apr 07, 2010
 
http://bayimg.com/KaNAHAadc
 
http://bayimg.com/kANajAAdC
 
http://bayimg.com/KaNAmAaDc

                                  info

General
Complete name                    : C:DownloadsEva Angelina vs. Teagan DVDdvdEva Angelina vs. Teagan DVD.avi
Format                           : AVI
Format/Info                      : Audio Video Interleave
Format profile                   : OpenDML
File size                        : 1.83 GiB
Duration                         : 3h 15mn
Overall bit rate                 : 1 338 Kbps
Writing application              : MEncoder SVN-r30881(20100311-gcc4.3.3)
Writing library                  : MPlayer

Video
ID                               : 0
Format                           : MPEG-4 Visual
Format profile                   : Advanced Simple@L5
Format settings, BVOP            : 2
Format settings, QPel            : No
Format settings, GMC             : No warppoints
Format settings, Matrix          : Default (H.263)
Codec ID                         : XVID
Codec ID/Hint                    : XviD
Duration                         : 3h 15mn
Bit rate                         : 33.3 Kbps
Width                            : 720 pixels
Height                           : 480 pixels
Display aspect ratio             : 3:2
Frame rate                       : 25.000 fps
Standard                         : NTSC
Color space                      : YUV
Chroma subsampling               : 4:2:0
Bit depth                        : 8 bits
Scan type                        : Progressive
Compression mode                 : Lossy
Bits/(Pixel*Frame)               : 0.004
Stream size                      : 46.6 MiB (2%)
Writing library                  : XviD 1.2.1 (UTC 2008-12-04)

Audio
ID                               : 1
Format                           : MPEG Audio
Codec ID                         : 55
Codec ID/Hint                    : MP3
Duration                         : 3h 15mn
Bit rate                         : 128 Kbps
Channel(s)                       : 2 channels
Sampling rate                    : 44.1 KHz
Compression mode                 : Lossy
Stream size                      : 179 MiB (10%)
Alignment                        : Aligned on interleaves

